<svg xmlns="http://www.w3.org/2000/svg" xmlns:xlink="http://www.w3.org/1999/xlink" width="1080" zoomAndPan="magnify" viewBox="0 0 810 809.999993" height="1080" preserveAspectRatio="xMidYMid meet" version="1.0"><defs><g/><clipPath id="dff8df96b4"><path d="M 405 0 C 181.324219 0 0 181.324219 0 405 C 0 628.675781 181.324219 810 405 810 C 628.675781 810 810 628.675781 810 405 C 810 181.324219 628.675781 0 405 0 Z M 405 0 " clip-rule="nonzero"/></clipPath><clipPath id="5f2001c14f"><path d="M 26.457031 26.457031 L 783.207031 26.457031 L 783.207031 783.207031 L 26.457031 783.207031 Z M 26.457031 26.457031 " clip-rule="nonzero"/></clipPath></defs><g clip-path="url(#dff8df96b4)"><rect x="-81" width="972" fill="#000000" y="-80.999999" height="971.999992" fill-opacity="1"/></g><path fill="#f5841f" d="M 540.230469 238.789062 L 499.84375 215.117188 C 499.6875 215.019531 499.480469 215.136719 499.480469 215.324219 L 499.480469 239.339844 C 499.480469 240.234375 499.980469 241.0625 500.765625 241.484375 L 514.109375 248.542969 C 516.957031 250.046875 518.734375 253.007812 518.734375 256.230469 L 518.734375 382.960938 L 479.113281 406.0625 L 479.113281 178.273438 C 479.113281 178.09375 479.261719 177.949219 479.4375 177.949219 L 497.417969 177.949219 C 497.710938 177.949219 497.847656 177.59375 497.652344 177.386719 L 467.835938 147.195312 C 467.738281 147.097656 467.582031 147.097656 467.492188 147.195312 L 438 177.386719 C 437.792969 177.59375 437.941406 177.949219 438.238281 177.949219 L 456.105469 177.949219 C 456.285156 177.949219 456.429688 178.09375 456.429688 178.273438 L 456.429688 419.292969 L 416.152344 442.699219 L 416.152344 238.515625 C 416.152344 238.339844 416.300781 238.191406 416.476562 238.191406 L 434.453125 238.191406 C 434.75 238.191406 434.886719 237.835938 434.691406 237.628906 L 404.875 207.441406 C 404.835938 207.402344 404.777344 207.382812 404.71875 207.371094 L 404.71875 207.363281 C 404.71875 207.363281 404.707031 207.363281 404.707031 207.363281 C 404.707031 207.363281 404.699219 207.363281 404.699219 207.363281 L 404.699219 207.371094 C 404.636719 207.371094 404.589844 207.390625 404.539062 207.441406 L 374.722656 237.628906 C 374.519531 237.835938 374.664062 238.191406 374.960938 238.191406 L 392.9375 238.191406 C 393.113281 238.191406 393.261719 238.339844 393.261719 238.515625 L 393.261719 442.699219 L 352.984375 419.292969 L 352.984375 178.273438 C 352.984375 178.09375 353.132812 177.949219 353.308594 177.949219 L 371.179688 177.949219 C 371.460938 177.949219 371.609375 177.59375 371.414062 177.386719 L 341.921875 147.195312 C 341.824219 147.097656 341.675781 147.097656 341.578125 147.195312 L 311.761719 177.386719 C 311.554688 177.59375 311.703125 177.949219 311.996094 177.949219 L 329.976562 177.949219 C 330.152344 177.949219 330.300781 178.09375 330.300781 178.273438 L 330.300781 406.0625 L 290.679688 382.960938 L 290.679688 256.230469 C 290.679688 253.007812 292.457031 250.046875 295.308594 248.542969 L 308.648438 241.484375 C 309.445312 241.0625 309.933594 240.234375 309.933594 239.339844 L 309.933594 215.324219 C 309.933594 215.136719 309.726562 215.019531 309.570312 215.117188 L 269.183594 238.789062 C 268.4375 239.222656 267.984375 240.027344 267.984375 240.882812 L 267.984375 389.671875 C 267.984375 393.085938 269.785156 396.25 272.710938 398 L 290.699219 408.726562 L 404.375 473.707031 C 404.65625 473.84375 404.785156 473.84375 405.070312 473.707031 L 518.753906 408.726562 L 536.710938 398.011719 C 539.640625 396.261719 541.4375 393.09375 541.4375 389.683594 L 541.4375 240.894531 C 541.4375 240.027344 540.976562 239.222656 540.230469 238.789062 Z M 540.230469 238.789062 " fill-opacity="1" fill-rule="nonzero"/><g clip-path="url(#5f2001c14f)"><path fill="#ff8400" d="M 404.996094 783.535156 C 196.332031 783.535156 26.457031 613.65625 26.457031 404.996094 C 26.457031 196.332031 196.332031 26.457031 404.996094 26.457031 C 613.65625 26.457031 783.535156 196.332031 783.535156 404.996094 C 783.535156 613.65625 613.65625 783.535156 404.996094 783.535156 Z M 404.996094 32.050781 C 199.316406 32.050781 32.050781 199.316406 32.050781 404.996094 C 32.050781 610.671875 199.316406 777.941406 404.996094 777.941406 C 610.671875 777.941406 777.941406 610.671875 777.941406 404.996094 C 777.941406 199.316406 610.671875 32.050781 404.996094 32.050781 Z M 404.996094 32.050781 " fill-opacity="1" fill-rule="nonzero"/></g><g fill="#ffffff" fill-opacity="1"><g transform="translate(90.005859, 589.306406)"><g><path d="M 23.71875 0 L 23.71875 -58.859375 L 1.5625 -58.859375 L 1.5625 -74.046875 L 63.640625 -74.046875 L 63.640625 -58.859375 L 41.5 -58.859375 L 41.5 0 Z M 23.71875 0 "/></g></g></g><g fill="#ffffff" fill-opacity="1"><g transform="translate(155.208901, 589.306406)"><g><path d="M 44.09375 2.59375 C 35.84375 2.59375 28.648438 0.945312 22.515625 -2.34375 C 16.378906 -5.632812 11.613281 -10.242188 8.21875 -16.171875 C 4.820312 -22.097656 3.125 -29.050781 3.125 -37.03125 C 3.125 -45 4.820312 -51.945312 8.21875 -57.875 C 11.613281 -63.800781 16.378906 -68.410156 22.515625 -71.703125 C 28.648438 -74.992188 35.84375 -76.640625 44.09375 -76.640625 C 52.414062 -76.640625 59.644531 -74.992188 65.78125 -71.703125 C 71.914062 -68.410156 76.679688 -63.800781 80.078125 -57.875 C 83.472656 -51.945312 85.171875 -45 85.171875 -37.03125 C 85.171875 -29.050781 83.472656 -22.097656 80.078125 -16.171875 C 76.679688 -10.242188 71.914062 -5.632812 65.78125 -2.34375 C 59.644531 0.945312 52.414062 2.59375 44.09375 2.59375 Z M 44.09375 -12.6875 C 48.8125 -12.6875 52.921875 -13.691406 56.421875 -15.703125 C 59.921875 -17.710938 62.625 -20.554688 64.53125 -24.234375 C 66.4375 -27.910156 67.390625 -32.175781 67.390625 -37.03125 C 67.390625 -41.945312 66.4375 -46.242188 64.53125 -49.921875 C 62.625 -53.597656 59.921875 -56.441406 56.421875 -58.453125 C 52.921875 -60.460938 48.8125 -61.46875 44.09375 -61.46875 C 39.445312 -61.46875 35.375 -60.460938 31.875 -58.453125 C 28.375 -56.441406 25.671875 -53.597656 23.765625 -49.921875 C 21.859375 -46.242188 20.90625 -41.945312 20.90625 -37.03125 C 20.90625 -32.175781 21.859375 -27.910156 23.765625 -24.234375 C 25.671875 -20.554688 28.375 -17.710938 31.875 -15.703125 C 35.375 -13.691406 39.445312 -12.6875 44.09375 -12.6875 Z M 44.09375 -12.6875 "/></g></g></g><g fill="#ffffff" fill-opacity="1"><g transform="translate(243.498188, 589.306406)"><g><path d="M 5.71875 0 L 5.71875 -74.046875 L 40.65625 -74.046875 C 46.414062 -74.046875 51.441406 -73.019531 55.734375 -70.96875 C 60.035156 -68.925781 63.382812 -66.066406 65.78125 -62.390625 C 68.175781 -58.722656 69.375 -54.425781 69.375 -49.5 C 69.375 -44.582031 68.175781 -40.265625 65.78125 -36.546875 C 63.382812 -32.835938 60.019531 -29.960938 55.6875 -27.921875 C 51.351562 -25.878906 46.273438 -24.859375 40.453125 -24.859375 L 23.40625 -24.859375 L 23.40625 0 Z M 23.40625 -38.0625 L 37.859375 -38.0625 C 42.015625 -38.0625 45.335938 -39.117188 47.828125 -41.234375 C 50.328125 -43.347656 51.578125 -46.101562 51.578125 -49.5 C 51.578125 -52.96875 50.347656 -55.738281 47.890625 -57.8125 C 45.429688 -59.894531 42.085938 -60.9375 37.859375 -60.9375 L 23.40625 -60.9375 Z M 23.40625 -38.0625 "/></g></g></g><g fill="#ffffff" fill-opacity="1"><g transform="translate(314.940754, 589.306406)"><g><path d="M 5.71875 0 L 5.71875 -74.046875 L 57.828125 -74.046875 L 57.828125 -59.90625 L 22.875 -59.90625 L 22.875 -44.203125 L 53.65625 -44.203125 L 53.65625 -31.609375 L 22.875 -31.609375 L 22.875 -14.25 L 58.859375 -14.25 L 58.859375 0 Z M 5.71875 0 "/></g></g></g><g fill="#ffffff" fill-opacity="1"><g transform="translate(376.088113, 589.306406)"><g/></g></g><g fill="#ffffff" fill-opacity="1"><g transform="translate(399.070366, 589.306406)"><g><path d="M 26.109375 1.5625 C 21.460938 1.5625 17.351562 0.382812 13.78125 -1.96875 C 10.207031 -4.332031 7.414062 -7.628906 5.40625 -11.859375 C 3.394531 -16.085938 2.390625 -21.007812 2.390625 -26.625 C 2.390625 -32.3125 3.394531 -37.25 5.40625 -41.4375 C 7.414062 -45.632812 10.207031 -48.910156 13.78125 -51.265625 C 17.351562 -53.628906 21.460938 -54.8125 26.109375 -54.8125 C 34.566406 -54.8125 40.703125 -50.894531 44.515625 -43.0625 L 44.609375 -43.0625 L 44.609375 -77.171875 L 60.53125 -77.171875 L 60.53125 0 L 47.21875 0 L 44.828125 -10.1875 L 44.71875 -10.1875 C 42.84375 -6.375 40.3125 -3.460938 37.125 -1.453125 C 33.9375 0.554688 30.265625 1.5625 26.109375 1.5625 Z M 31.71875 -11.859375 C 34.351562 -11.859375 36.691406 -12.515625 38.734375 -13.828125 C 40.785156 -15.148438 42.378906 -16.921875 43.515625 -19.140625 C 44.660156 -21.359375 45.234375 -23.851562 45.234375 -26.625 C 45.234375 -30.851562 43.96875 -34.367188 41.4375 -37.171875 C 38.90625 -39.984375 35.664062 -41.390625 31.71875 -41.390625 C 27.832031 -41.390625 24.609375 -39.984375 22.046875 -37.171875 C 19.484375 -34.367188 18.203125 -30.851562 18.203125 -26.625 C 18.203125 -22.394531 19.484375 -18.875 22.046875 -16.0625 C 24.609375 -13.257812 27.832031 -11.859375 31.71875 -11.859375 Z M 31.71875 -11.859375 "/></g></g></g><g fill="#ffffff" fill-opacity="1"><g transform="translate(463.753445, 589.306406)"><g><path d="M 12.484375 -60.53125 C 9.703125 -60.53125 7.445312 -61.359375 5.71875 -63.015625 C 3.988281 -64.679688 3.125 -66.867188 3.125 -69.578125 C 3.125 -72.347656 3.988281 -74.566406 5.71875 -76.234375 C 7.445312 -77.898438 9.703125 -78.734375 12.484375 -78.734375 C 15.328125 -78.734375 17.613281 -77.898438 19.34375 -76.234375 C 21.070312 -74.566406 21.9375 -72.347656 21.9375 -69.578125 C 21.9375 -66.867188 21.070312 -64.679688 19.34375 -63.015625 C 17.613281 -61.359375 15.328125 -60.53125 12.484375 -60.53125 Z M 4.578125 0 L 4.578125 -53.25 L 20.390625 -53.25 L 20.390625 0 Z M 4.578125 0 "/></g></g></g><g fill="#ffffff" fill-opacity="1"><g transform="translate(488.815547, 589.306406)"><g><path d="M 27.5625 23.921875 C 22.082031 23.921875 16.828125 23.019531 11.796875 21.21875 C 6.773438 19.414062 2.804688 17.023438 -0.109375 14.046875 L 5.40625 2.1875 C 7.757812 4.75 10.804688 6.8125 14.546875 8.375 C 18.296875 9.9375 22.179688 10.71875 26.203125 10.71875 C 31.679688 10.71875 36.050781 9.242188 39.3125 6.296875 C 42.570312 3.347656 44.203125 -0.65625 44.203125 -5.71875 L 44.203125 -9.984375 L 44.09375 -9.984375 C 42.289062 -7.003906 39.707031 -4.628906 36.34375 -2.859375 C 32.976562 -1.085938 29.460938 -0.203125 25.796875 -0.203125 C 21.078125 -0.203125 16.96875 -1.328125 13.46875 -3.578125 C 9.96875 -5.835938 7.242188 -8.992188 5.296875 -13.046875 C 3.359375 -17.109375 2.390625 -21.878906 2.390625 -27.359375 C 2.390625 -32.898438 3.34375 -37.710938 5.25 -41.796875 C 7.15625 -45.890625 9.820312 -49.0625 13.25 -51.3125 C 16.6875 -53.570312 20.691406 -54.703125 25.265625 -54.703125 C 29.222656 -54.703125 32.929688 -53.644531 36.390625 -51.53125 C 39.859375 -49.414062 42.460938 -46.625 44.203125 -43.15625 L 44.296875 -43.15625 L 46.703125 -53.25 L 60.109375 -53.25 L 60.109375 -5.203125 C 60.109375 0.691406 58.773438 5.820312 56.109375 10.1875 C 53.441406 14.5625 49.660156 17.941406 44.765625 20.328125 C 39.878906 22.722656 34.144531 23.921875 27.5625 23.921875 Z M 31.515625 -13.109375 C 35.535156 -13.109375 38.757812 -14.441406 41.1875 -17.109375 C 43.613281 -19.773438 44.828125 -23.191406 44.828125 -27.359375 C 44.828125 -31.585938 43.613281 -35.066406 41.1875 -37.796875 C 38.757812 -40.535156 35.535156 -41.90625 31.515625 -41.90625 C 27.554688 -41.90625 24.347656 -40.570312 21.890625 -37.90625 C 19.429688 -35.238281 18.203125 -31.722656 18.203125 -27.359375 C 18.203125 -23.128906 19.429688 -19.695312 21.890625 -17.0625 C 24.347656 -14.425781 27.554688 -13.109375 31.515625 -13.109375 Z M 31.515625 -13.109375 "/></g></g></g><g fill="#ffffff" fill-opacity="1"><g transform="translate(553.082679, 589.306406)"><g><path d="M 12.484375 -60.53125 C 9.703125 -60.53125 7.445312 -61.359375 5.71875 -63.015625 C 3.988281 -64.679688 3.125 -66.867188 3.125 -69.578125 C 3.125 -72.347656 3.988281 -74.566406 5.71875 -76.234375 C 7.445312 -77.898438 9.703125 -78.734375 12.484375 -78.734375 C 15.328125 -78.734375 17.613281 -77.898438 19.34375 -76.234375 C 21.070312 -74.566406 21.9375 -72.347656 21.9375 -69.578125 C 21.9375 -66.867188 21.070312 -64.679688 19.34375 -63.015625 C 17.613281 -61.359375 15.328125 -60.53125 12.484375 -60.53125 Z M 4.578125 0 L 4.578125 -53.25 L 20.390625 -53.25 L 20.390625 0 Z M 4.578125 0 "/></g></g></g><g fill="#ffffff" fill-opacity="1"><g transform="translate(578.144782, 589.306406)"><g><path d="M 31.203125 2.078125 C 24.816406 2.078125 19.769531 0.3125 16.0625 -3.21875 C 12.351562 -6.757812 10.5 -11.546875 10.5 -17.578125 L 10.5 -41.1875 L 0.515625 -41.1875 L 0.515625 -53.25 L 10.5 -53.25 L 10.5 -67.90625 L 26.421875 -71.34375 L 26.421875 -53.25 L 47.53125 -53.25 L 47.53125 -41.1875 L 26.421875 -41.1875 L 26.421875 -20.078125 C 26.421875 -17.160156 27.21875 -14.867188 28.8125 -13.203125 C 30.40625 -11.546875 32.378906 -10.71875 34.734375 -10.71875 C 39.453125 -10.71875 43.054688 -13.003906 45.546875 -17.578125 L 50.34375 -7.59375 C 48.46875 -4.613281 45.78125 -2.253906 42.28125 -0.515625 C 38.78125 1.210938 35.085938 2.078125 31.203125 2.078125 Z M 31.203125 2.078125 "/></g></g></g><g fill="#ffffff" fill-opacity="1"><g transform="translate(629.724857, 589.306406)"><g><path d="M 20.59375 1.5625 C 15.039062 1.5625 10.476562 0.175781 6.90625 -2.59375 C 3.34375 -5.375 1.5625 -9.050781 1.5625 -13.625 C 1.5625 -18.195312 3.535156 -22.039062 7.484375 -25.15625 C 11.441406 -28.28125 17.40625 -30.257812 25.375 -31.09375 L 35.671875 -32.34375 C 36.921875 -32.476562 37.925781 -32.875 38.6875 -33.53125 C 39.445312 -34.195312 39.828125 -35.082031 39.828125 -36.1875 C 39.828125 -38.476562 38.925781 -40.316406 37.125 -41.703125 C 35.320312 -43.085938 33 -43.78125 30.15625 -43.78125 C 26.96875 -43.78125 24.332031 -42.789062 22.25 -40.8125 C 20.175781 -38.84375 19 -36.539062 18.71875 -33.90625 L 3.21875 -36.296875 C 3.570312 -39.972656 4.875 -43.25 7.125 -46.125 C 9.375 -49 12.441406 -51.25 16.328125 -52.875 C 20.210938 -54.507812 24.6875 -55.328125 29.75 -55.328125 C 37.582031 -55.328125 43.820312 -53.398438 48.46875 -49.546875 C 53.113281 -45.703125 55.4375 -40.453125 55.4375 -33.796875 L 55.4375 -13.203125 C 55.4375 -10.640625 56.335938 -9.359375 58.140625 -9.359375 C 59.660156 -9.359375 61.046875 -10.15625 62.296875 -11.75 L 66.046875 -3.328125 C 64.441406 -1.734375 62.375 -0.519531 59.84375 0.3125 C 57.320312 1.144531 54.847656 1.5625 52.421875 1.5625 C 49.222656 1.5625 46.476562 0.695312 44.1875 -1.03125 C 41.90625 -2.769531 40.59375 -4.851562 40.25 -7.28125 L 40.046875 -9.15625 L 39.9375 -9.15625 C 38.207031 -5.96875 35.675781 -3.382812 32.34375 -1.40625 C 29.019531 0.570312 25.101562 1.5625 20.59375 1.5625 Z M 26.625 -9.359375 C 30.363281 -9.359375 33.445312 -10.519531 35.875 -12.84375 C 38.300781 -15.164062 39.515625 -18.128906 39.515625 -21.734375 L 39.515625 -23.921875 L 29.328125 -22.78125 C 24.890625 -22.289062 21.800781 -21.382812 20.0625 -20.0625 C 18.332031 -18.75 17.46875 -17.226562 17.46875 -15.5 C 17.46875 -13.695312 18.332031 -12.222656 20.0625 -11.078125 C 21.800781 -9.929688 23.988281 -9.359375 26.625 -9.359375 Z M 26.625 -9.359375 "/></g></g></g><g fill="#ffffff" fill-opacity="1"><g transform="translate(695.759827, 589.306406)"><g><path d="M 4.15625 0 L 4.15625 -77.171875 L 20.078125 -77.171875 L 20.078125 0 Z M 4.15625 0 "/></g></g></g></svg>